<svg xmlns="http://www.w3.org/2000/svg" viewBox="0 0 100 100" width="50" height="50"><circle cx="50" cy="50" r="5" fill="green"></circle><line x1="50" y1="50" x2="90" y2="50" stroke="white" stroke-width="1"></line><line x1="50" y1="50" x2="79.54423259036625" y2="55.20944533000791" stroke="white" stroke-width="1"></line><line x1="50" y1="50" x2="87.58770483143634" y2="63.680805733026745" stroke="white" stroke-width="1"></line><line x1="50" y1="50" x2="75.98076211353316" y2="65" stroke="white" stroke-width="1"></line><line x1="50" y1="50" x2="80.64177772475912" y2="75.71150438746157" stroke="white" stroke-width="1"></line><line x1="50" y1="50" x2="69.28362829059618" y2="72.98133329356934" stroke="white" stroke-width="1"></line><line x1="50" y1="50" x2="70" y2="84.64101615137754" stroke="white" stroke-width="1"></line><line x1="50" y1="50" x2="60.260604299770065" y2="78.19077862357724" stroke="white" stroke-width="1"></line><line x1="50" y1="50" x2="56.94592710667722" y2="89.39231012048832" stroke="white" stroke-width="1"></line><line x1="50" y1="50" x2="50" y2="80" stroke="white" stroke-width="1"></line><line x1="50" y1="50" x2="43.05407289332279" y2="89.39231012048832" stroke="white" stroke-width="1"></line><line x1="50" y1="50" x2="39.739395700229935" y2="78.19077862357724" stroke="white" stroke-width="1"></line><line x1="50" y1="50" x2="30.000000000000007" y2="84.64101615137756" stroke="white" stroke-width="1"></line><line x1="50" y1="50" x2="30.71637170940382" y2="72.98133329356934" stroke="white" stroke-width="1"></line><line x1="50" y1="50" x2="19.358222275240884" y2="75.71150438746159" stroke="white" stroke-width="1"></line><line x1="50" y1="50" x2="24.01923788646684" y2="65" stroke="white" stroke-width="1"></line><line x1="50" y1="50" x2="12.412295168563666" y2="63.68080573302676" stroke="white" stroke-width="1"></line><line x1="50" y1="50" x2="20.455767409633758" y2="55.20944533000791" stroke="white" stroke-width="1"></line><line x1="50" y1="50" x2="10" y2="50.00000000000001" stroke="white" stroke-width="1"></line><line x1="50" y1="50" x2="20.455767409633758" y2="44.79055466999208" stroke="white" stroke-width="1"></line><line x1="50" y1="50" x2="12.41229516856366" y2="36.319194266973255" stroke="white" stroke-width="1"></line><line x1="50" y1="50" x2="24.019237886466843" y2="35" stroke="white" stroke-width="1"></line><line x1="50" y1="50" x2="19.358222275240877" y2="24.28849561253843" stroke="white" stroke-width="1"></line><line x1="50" y1="50" x2="30.716371709403816" y2="27.018666706430665" stroke="white" stroke-width="1"></line><line x1="50" y1="50" x2="29.999999999999982" y2="15.358983848622458" stroke="white" stroke-width="1"></line><line x1="50" y1="50" x2="39.73939570022992" y2="21.809221376422755" stroke="white" stroke-width="1"></line><line x1="50" y1="50" x2="43.05407289332279" y2="10.607689879511682" stroke="white" stroke-width="1"></line><line x1="50" y1="50" x2="49.99999999999999" y2="20" stroke="white" stroke-width="1"></line><line x1="50" y1="50" x2="56.945927106677196" y2="10.607689879511675" stroke="white" stroke-width="1"></line><line x1="50" y1="50" x2="60.260604299770044" y2="21.809221376422744" stroke="white" stroke-width="1"></line><line x1="50" y1="50" x2="70" y2="15.358983848622458" stroke="white" stroke-width="1"></line><line x1="50" y1="50" x2="69.28362829059617" y2="27.018666706430658" stroke="white" stroke-width="1"></line><line x1="50" y1="50" x2="80.64177772475911" y2="24.288495612538416" stroke="white" stroke-width="1"></line><line x1="50" y1="50" x2="75.98076211353316" y2="34.999999999999986" stroke="white" stroke-width="1"></line><line x1="50" y1="50" x2="87.58770483143634" y2="36.319194266973255" stroke="white" stroke-width="1"></line><line x1="50" y1="50" x2="79.54423259036624" y2="44.79055466999206" stroke="white" stroke-width="1"></line></svg>